<svg xmlns="http://www.w3.org/2000/svg" viewBox="0 0 1200 800" width="1200" height="800"><path fill="#FFF" d="M0 0h1200v800H0z"/><g transform="translate(106.0 144.0) rotate(0.0 873.0 285.0) scale(1.0 1.0)"><svg width="1746" height="570" viewBox="0 0 1746 570"><g><path fill="#24CFCF" d="m152.7 358.95 39.6-105h43.8l46.5 105h-56.7l-15.75-34.8h-33l-13.5 34.8H152.7ZM180.45 315h25.5l-13.65-30.45L180.45 315Z"/></g></svg></g><g transform="translate(-25.0 144.0) rotate(0.0 546.5 285.0) scale(1.0 1.0)"><svg width="1093" height="570" viewBox="0 0 1093 570"><g><path fill="#DF4314" d="M154.2 358.95v-105h52.65v105H154.2Zm83.7 0-31.05-52.65 24.6-52.35h52.35l-26.25 52.35 33.3 52.65H237.9Z"/></g></svg></g><g transform="translate(235.0 144.0) rotate(0.0 873.0 285.0) scale(1.0 1.0)"><svg width="1746" height="570" viewBox="0 0 1746 570"><g><path fill="#C5E41B" d="m193.65 358.95-30.6-69.9v69.9h-8.85v-105H198l21.9 43.8 17.4-43.8h48v105h-48V280.2l-30.6 78.75h-13.05Z"/></g></svg></g></svg>